<svg width="10" height="10" viewBox="0 0 10 10" fill="none" xmlns="http://www.w3.org/2000/svg">
<path d="M5.15045 0.845929C5.11967 0.88648 4.82233 1.48259 4.70242 1.74374C4.07453 3.11276 3.953 3.36986 3.90277 3.42744C3.86955 3.46637 3.84201 3.47853 3.72777 3.50773C3.55763 3.55071 3.47094 3.56694 2.43958 3.75104C1.22754 3.96677 0.935062 4.02436 0.905085 4.05436C0.88159 4.0787 0.893742 4.09654 0.998256 4.19386C1.25022 4.42663 1.35636 4.51665 2.14791 5.15818C2.78633 5.67561 2.93703 5.80132 3.05208 5.91649C3.16874 6.03166 3.17117 6.03896 3.15983 6.16629C3.14606 6.32038 3.10312 6.54747 2.92569 7.41284C2.82846 7.8881 2.7361 8.34228 2.7199 8.42257C2.67048 8.6748 2.61701 9.01706 2.61944 9.06166C2.62349 9.13141 2.63483 9.12898 2.903 8.99192C3.15659 8.86215 3.23518 8.81917 4.08425 8.3439C4.8118 7.93677 4.9317 7.87107 5.08483 7.79727C5.2258 7.72914 5.28252 7.71049 5.32383 7.71779C5.40485 7.7332 5.64953 7.85404 6.46052 8.27821C6.76434 8.43717 7.11191 8.61641 7.23182 8.67724C7.48298 8.80376 7.85971 8.97732 7.89779 8.98381C7.91805 8.98705 7.92453 8.98462 7.93263 8.97002C7.94478 8.9465 7.94154 8.91 7.89617 8.64155C7.85647 8.40554 7.84432 8.34147 7.64096 7.27497C7.43518 6.19873 7.39791 5.98543 7.39791 5.87837C7.39791 5.78591 7.40682 5.7778 8.36203 4.97975C8.66261 4.72833 8.94536 4.49151 8.98992 4.45339C9.22731 4.25063 9.57407 3.93839 9.58055 3.92055C9.58865 3.89865 9.58622 3.88567 9.57001 3.87756C9.5295 3.85566 9.01666 3.79159 8.16353 3.70238C6.95555 3.57586 6.72302 3.54909 6.63876 3.52395C6.61527 3.51665 6.5861 3.50043 6.57233 3.48664C6.5221 3.43636 6.42001 3.23928 5.96874 2.31795C5.50045 1.36174 5.25416 0.874315 5.2177 0.829708C5.2015 0.810244 5.17152 0.817543 5.15045 0.845929Z" fill="#E6AE3F"/>
</svg>
