<svg width="10" height="10" viewBox="0 0 10 10" fill="none" xmlns="http://www.w3.org/2000/svg">
<path d="M4.78009 0.845929C4.74931 0.88648 4.45197 1.48259 4.33206 1.74374C3.70417 3.11276 3.58264 3.36986 3.53241 3.42744C3.49919 3.46637 3.47164 3.47853 3.35741 3.50773C3.18727 3.55071 3.10058 3.56694 2.06921 3.75104C0.857177 3.96677 0.564701 4.02436 0.534724 4.05436C0.511228 4.0787 0.523381 4.09654 0.627895 4.19386C0.879863 4.42663 0.985997 4.51665 1.77755 5.15818C2.41597 5.67561 2.56667 5.80132 2.68171 5.91649C2.79838 6.03166 2.80081 6.03896 2.78947 6.16629C2.7757 6.32038 2.73276 6.54747 2.55533 7.41284C2.4581 7.8881 2.36574 8.34228 2.34954 8.42257C2.30012 8.6748 2.24664 9.01706 2.24908 9.06166C2.25313 9.13141 2.26447 9.12898 2.53264 8.99192C2.78623 8.86215 2.86482 8.81917 3.71389 8.3439C4.44144 7.93677 4.56134 7.87107 4.71447 7.79727C4.85544 7.72914 4.91215 7.71049 4.95347 7.71779C5.03449 7.7332 5.27917 7.85404 6.09016 8.27821C6.39398 8.43717 6.74155 8.61641 6.86146 8.67724C7.11262 8.80376 7.48935 8.97732 7.52743 8.98381C7.54769 8.98705 7.55417 8.98462 7.56227 8.97002C7.57442 8.9465 7.57118 8.91 7.52581 8.64155C7.48611 8.40554 7.47396 8.34147 7.2706 7.27497C7.06482 6.19873 7.02755 5.98543 7.02755 5.87837C7.02755 5.78591 7.03646 5.7778 7.99167 4.97975C8.29225 4.72833 8.575 4.49151 8.61956 4.45339C8.85695 4.25063 9.2037 3.93839 9.21019 3.92055C9.21829 3.89865 9.21586 3.88567 9.19965 3.87756C9.15914 3.85566 8.6463 3.79159 7.79317 3.70238C6.58519 3.57586 6.35266 3.54909 6.2684 3.52395C6.24491 3.51665 6.21574 3.50043 6.20197 3.48664C6.15174 3.43636 6.04965 3.23928 5.59838 2.31795C5.13009 1.36174 4.8838 0.874315 4.84734 0.829708C4.83114 0.810244 4.80116 0.817543 4.78009 0.845929Z" fill="#E6AE3F"/>
</svg>
