<svg width="94" height="30" viewBox="0 0 94 30" fill="none" xmlns="http://www.w3.org/2000/svg">
<path d="M39.576 9.8V21H37.496V11.544H35.128V9.8H39.576ZM45.8938 7.528H47.6858L42.4058 22.6H40.6137L45.8938 7.528ZM51.2393 14.136C52.8179 14.136 53.9859 14.4453 54.7433 15.064C55.5006 15.672 55.8793 16.504 55.8793 17.56C55.8793 18.232 55.7139 18.84 55.3833 19.384C55.0526 19.928 54.5566 20.36 53.8953 20.68C53.2339 21 52.4179 21.16 51.4473 21.16C50.6473 21.16 49.8739 21.048 49.1273 20.824C48.3806 20.5893 47.7513 20.2693 47.2393 19.864L48.1193 18.248C48.5353 18.5893 49.0313 18.8613 49.6073 19.064C50.1939 19.256 50.7966 19.352 51.4153 19.352C52.1513 19.352 52.7273 19.2027 53.1433 18.904C53.5699 18.5947 53.7833 18.1733 53.7833 17.64C53.7833 17.064 53.5539 16.632 53.0953 16.344C52.6473 16.0453 51.8739 15.896 50.7753 15.896H48.0713L48.6473 9.8H55.2233V11.544H50.4073L50.1673 14.136H51.2393Z" fill="#424242"/>
<path d="M18.7501 7.5C18.7507 7.79206 18.6489 8.0751 18.4626 8.29999L12.8626 15L18.2626 21.7125C18.3664 21.8404 18.444 21.9875 18.4907 22.1454C18.5375 22.3033 18.5527 22.4689 18.5352 22.6327C18.5178 22.7965 18.4682 22.9552 18.3892 23.0998C18.3102 23.2443 18.2035 23.3718 18.0751 23.475C17.9472 23.5788 17.8001 23.6564 17.6422 23.7032C17.4843 23.7499 17.3186 23.7651 17.1549 23.7476C16.9911 23.7302 16.8323 23.6806 16.6878 23.6016C16.5432 23.5227 16.4157 23.4159 16.3126 23.2875L10.2751 15.7875C10.0912 15.5638 9.99072 15.2833 9.99072 14.9937C9.99072 14.7042 10.0912 14.4237 10.2751 14.2L16.5251 6.7C16.63 6.57342 16.7589 6.46879 16.9043 6.39211C17.0498 6.31541 17.2089 6.26817 17.3726 6.25307C17.5363 6.23798 17.7014 6.25533 17.8584 6.30414C18.0154 6.35294 18.1613 6.43224 18.2876 6.53749C18.431 6.65381 18.5468 6.80045 18.6268 6.96687C18.7068 7.13329 18.7489 7.31536 18.7501 7.5Z" fill="#976464"/>
<path d="M75.2499 22.5C75.2493 22.2079 75.3511 21.9249 75.5374 21.7L81.1374 15L75.7374 8.2875C75.6336 8.15964 75.556 8.01252 75.5093 7.8546C75.4625 7.69668 75.4473 7.53106 75.4648 7.36728C75.4822 7.20349 75.5318 7.04476 75.6108 6.90022C75.6898 6.75567 75.7965 6.62816 75.9249 6.525C76.0528 6.42117 76.1999 6.34363 76.3578 6.29684C76.5157 6.25005 76.6814 6.23494 76.8451 6.25236C77.0089 6.26978 77.1677 6.31941 77.3122 6.39837C77.4568 6.47734 77.5843 6.5841 77.6874 6.7125L83.7249 14.2125C83.9088 14.4362 84.0093 14.7167 84.0093 15.0063C84.0093 15.2958 83.9088 15.5763 83.7249 15.8L77.4749 23.3C77.37 23.4266 77.2411 23.5312 77.0957 23.6079C76.9502 23.6846 76.7911 23.7318 76.6274 23.7469C76.4637 23.762 76.2986 23.7447 76.1416 23.6959C75.9846 23.6471 75.8387 23.5678 75.7124 23.4625C75.569 23.3462 75.4532 23.1995 75.3732 23.0331C75.2932 22.8667 75.2511 22.6846 75.2499 22.5Z" fill="#976464"/>
</svg>
