<svg width="81" height="54" viewBox="0 0 81 54" fill="none" xmlns="http://www.w3.org/2000/svg">
<path d="M80.3058 53.1718C80.3058 53.1718 79.5449 53.1045 78.1143 52.9594C77.4046 52.887 76.5086 52.7132 75.4704 52.5436C74.9485 52.4558 74.4045 52.3095 73.8148 52.1859C73.2251 52.0624 72.5958 51.9209 71.9613 51.7385C68.8179 50.8799 65.7718 49.6833 62.8734 48.1686C59.1118 46.1846 55.6263 43.6926 52.5099 40.7591C48.7989 37.2628 45.722 33.1188 43.4223 28.5198C42.1771 25.9856 41.3273 23.2667 40.9037 20.4622C40.4412 17.486 40.7136 14.4384 41.6962 11.5982C42.7422 8.65706 44.4982 6.03602 46.7999 3.98005C49.1682 1.81501 52.1316 0.454854 55.2835 0.0862608C58.5252 -0.191052 61.7633 0.660376 64.4752 2.50309C67.2915 4.31677 69.4217 7.06014 70.5151 10.2815C70.7757 11.0965 70.9548 11.9366 71.0498 12.7889C71.1016 13.2326 71.1143 13.6233 71.126 14.1074C71.1376 14.5914 71.1231 14.8711 71.0612 15.3251C70.9083 17.0192 70.4806 18.6753 69.7958 20.2249C68.4275 23.2233 66.3792 25.842 63.8223 27.862C61.3591 29.7917 58.6629 31.3864 55.8009 32.6066C53.09 33.8392 50.309 34.9026 47.473 35.7909C42.0304 37.5306 36.3046 38.141 30.6296 37.5867C25.5288 37.0011 20.6014 35.3393 16.157 32.7057C12.4387 30.4946 9.02631 27.7818 6.01113 24.64C3.61293 22.1808 1.82942 19.1637 0.81239 15.8454C0.135121 13.69 0.00431759 11.393 0.432321 9.17134C0.56723 8.59688 0.744521 8.03377 0.962668 7.48687L1.20199 6.92417C1.26457 6.78172 1.3794 6.67032 1.52154 6.61414C1.66368 6.55797 1.82169 6.56154 1.96127 6.6241C2.09244 6.68317 2.19715 6.79068 2.2546 6.92528C2.31206 7.05989 2.31805 7.21175 2.27141 7.35069L2.10081 7.86756C1.95632 8.37051 1.84801 8.88366 1.77674 9.40288C1.5368 11.3944 1.77971 13.4158 2.48391 15.2879C3.59496 18.2313 5.34594 20.8759 7.60359 23.0205C10.5613 25.8883 13.8556 28.3673 17.4105 30.4001C21.5927 32.768 26.1908 34.2627 30.9393 34.7977C36.2617 35.3396 41.6359 34.7945 46.7518 33.1939C49.4893 32.3492 52.1764 31.3413 54.7993 30.1753C57.4559 29.0698 59.9735 27.6412 62.298 25.9201C64.6118 24.1932 66.4855 21.9194 67.7602 19.2915C68.365 17.9974 68.755 16.609 68.9144 15.1832C68.9542 14.8137 68.9754 14.4422 68.978 14.0704C68.9756 13.7731 68.9743 13.3824 68.9384 13.0381C68.8755 12.3302 68.7404 11.631 68.5354 10.952C67.6109 8.18077 65.8316 5.79384 63.4668 4.15239C61.1019 2.51094 58.2802 1.70428 55.4286 1.85447C52.6057 2.13696 49.9367 3.30689 47.7865 5.20431C45.6462 7.0613 44.0004 9.44508 43.0031 12.1324C42.0502 14.7482 41.7605 17.5693 42.1612 20.3312C42.5377 23.0078 43.334 25.6041 44.5192 28.0197C46.7271 32.482 49.6832 36.5111 53.2524 39.9225C56.2826 42.8012 59.6749 45.2509 63.3389 47.2062C66.1696 48.7082 69.1605 49.8683 72.2518 50.6634C72.8862 50.8574 73.4986 50.9812 74.0938 51.1223C74.689 51.2634 75.2105 51.3862 75.7098 51.462C76.7199 51.6021 77.5649 51.7695 78.2975 51.8189L80.4097 52.007C80.4906 52.0062 80.5707 52.0228 80.6449 52.0558C80.7191 52.0887 80.7858 52.1372 80.8406 52.1982C80.8954 52.2592 80.9371 52.3313 80.9631 52.4098C80.9891 52.4884 80.9987 52.5716 80.9914 52.6542C80.9841 52.7368 80.96 52.8169 80.9207 52.8894C80.8813 52.9619 80.8276 53.025 80.763 53.0749C80.6984 53.1248 80.6243 53.1602 80.5455 53.1789C80.4668 53.1976 80.385 53.1991 80.3056 53.1834L80.3058 53.1718Z" fill="#5E5C5A"/>
</svg>
