<svg width="45" height="13" viewBox="0 0 45 13" fill="none" xmlns="http://www.w3.org/2000/svg">
<path d="M5.472 5.424C6.50667 5.552 7.296 5.904 7.84 6.48C8.384 7.056 8.656 7.776 8.656 8.64C8.656 9.29067 8.49067 9.88267 8.16 10.416C7.82933 10.9493 7.328 11.376 6.656 11.696C5.99467 12.0053 5.184 12.16 4.224 12.16C3.424 12.16 2.65067 12.048 1.904 11.824C1.168 11.5893 0.538667 11.2693 0.016 10.864L0.912 9.248C1.31733 9.58933 1.808 9.86133 2.384 10.064C2.97067 10.256 3.57333 10.352 4.192 10.352C4.928 10.352 5.504 10.2027 5.92 9.904C6.34667 9.59467 6.56 9.17867 6.56 8.656C6.56 8.13333 6.35733 7.728 5.952 7.44C5.55733 7.14133 4.94933 6.992 4.128 6.992H3.104V5.568L5.648 2.544H0.56V0.799999H8.192V2.192L5.472 5.424ZM17.2805 6.112C17.8672 6.37867 18.3152 6.74133 18.6245 7.2C18.9445 7.648 19.1045 8.176 19.1045 8.784C19.1045 9.46667 18.9125 10.064 18.5285 10.576C18.1552 11.088 17.6218 11.4827 16.9285 11.76C16.2352 12.0267 15.4298 12.16 14.5125 12.16C13.5952 12.16 12.7898 12.0267 12.0965 11.76C11.4138 11.4827 10.8858 11.088 10.5125 10.576C10.1392 10.064 9.9525 9.46667 9.9525 8.784C9.9525 8.176 10.1072 7.648 10.4165 7.2C10.7258 6.74133 11.1685 6.37867 11.7445 6.112C11.2965 5.86667 10.9498 5.54667 10.7045 5.152C10.4698 4.74667 10.3525 4.28267 10.3525 3.76C10.3525 3.13067 10.5232 2.58133 10.8645 2.112C11.2165 1.64267 11.7072 1.28 12.3365 1.024C12.9658 0.767999 13.6912 0.639999 14.5125 0.639999C15.3445 0.639999 16.0752 0.767999 16.7045 1.024C17.3338 1.28 17.8245 1.64267 18.1765 2.112C18.5285 2.58133 18.7045 3.13067 18.7045 3.76C18.7045 4.28267 18.5818 4.74133 18.3365 5.136C18.0912 5.53067 17.7392 5.856 17.2805 6.112ZM14.5125 2.272C13.8618 2.272 13.3445 2.41067 12.9605 2.688C12.5872 2.96533 12.4005 3.35467 12.4005 3.856C12.4005 4.336 12.5872 4.72 12.9605 5.008C13.3445 5.28533 13.8618 5.424 14.5125 5.424C15.1738 5.424 15.6965 5.28533 16.0805 5.008C16.4645 4.72 16.6565 4.336 16.6565 3.856C16.6565 3.35467 16.4592 2.96533 16.0645 2.688C15.6805 2.41067 15.1632 2.272 14.5125 2.272ZM14.5125 10.528C15.2805 10.528 15.8885 10.368 16.3365 10.048C16.7845 9.728 17.0085 9.28533 17.0085 8.72C17.0085 8.16533 16.7845 7.728 16.3365 7.408C15.8885 7.088 15.2805 6.928 14.5125 6.928C13.7445 6.928 13.1418 7.088 12.7045 7.408C12.2672 7.728 12.0485 8.16533 12.0485 8.72C12.0485 9.28533 12.2672 9.728 12.7045 10.048C13.1418 10.368 13.7445 10.528 14.5125 10.528ZM23.958 5.136C25.5367 5.136 26.7047 5.44533 27.462 6.064C28.2193 6.672 28.598 7.504 28.598 8.56C28.598 9.232 28.4327 9.84 28.102 10.384C27.7713 10.928 27.2753 11.36 26.614 11.68C25.9527 12 25.1367 12.16 24.166 12.16C23.366 12.16 22.5927 12.048 21.846 11.824C21.0993 11.5893 20.47 11.2693 19.958 10.864L20.838 9.248C21.254 9.58933 21.75 9.86133 22.326 10.064C22.9127 10.256 23.5153 10.352 24.134 10.352C24.87 10.352 25.446 10.2027 25.862 9.904C26.2887 9.59467 26.502 9.17333 26.502 8.64C26.502 8.064 26.2727 7.632 25.814 7.344C25.366 7.04533 24.5927 6.896 23.494 6.896H20.79L21.366 0.799999H27.942V2.544H23.126L22.886 5.136H23.958ZM37.6756 8.304V9.216H41.1956V10.336H37.6756V12H35.5956V10.336H33.9956V9.216H35.5956V0.799999H40.2036C41.697 0.799999 42.8596 1.12 43.6916 1.76C44.5343 2.4 44.9556 3.33333 44.9556 4.56C44.9556 5.776 44.5343 6.704 43.6916 7.344C42.8596 7.984 41.697 8.304 40.2036 8.304H37.6756ZM42.8596 4.576C42.8596 3.92533 42.6303 3.42933 42.1716 3.088C41.713 2.736 41.0516 2.56 40.1876 2.56H37.6756V6.624H40.1876C41.041 6.624 41.697 6.448 42.1556 6.096C42.625 5.73333 42.8596 5.22667 42.8596 4.576Z" fill="url(#paint0_linear_108_120)"/>
<defs>
<linearGradient id="paint0_linear_108_120" x1="-9.94594" y1="-16.5" x2="46.6193" y2="12.3022" gradientUnits="userSpaceOnUse">
<stop stop-color="#976464"/>
<stop offset="1" stop-color="#CFA5A5"/>
</linearGradient>
</defs>
</svg>
