<svg width="11" height="11" viewBox="0 0 11 11" fill="none" xmlns="http://www.w3.org/2000/svg">
<path d="M5.08127 0.555156L3.2142 3.66669H7.7858L5.918 0.555156L6.54867 0.178223L8.64087 3.66669H10.4845C10.769 3.66669 11 3.89769 11 4.18222V4.50416C11 6.66291 10.4974 8.79201 9.53187 10.7228C9.49018 10.8062 9.42612 10.8762 9.34685 10.9252C9.26758 10.9741 9.17624 11.0001 9.08307 11H1.91693C1.8237 10.9999 1.73234 10.9738 1.65308 10.9248C1.57382 10.8757 1.50978 10.8055 1.46813 10.7221C0.502632 8.79128 -1.72126e-05 6.66218 4.42075e-10 4.50342L4.42076e-10 4.18222C4.42076e-10 3.89769 0.231 3.66669 0.515533 3.66669H2.35913L4.45133 0.178223L5.08053 0.555156H5.08127Z" fill="white"/>
</svg>
