<svg width="74" height="13" viewBox="0 0 74 13" fill="none" xmlns="http://www.w3.org/2000/svg">
<path d="M5.98349 4.946C6.66482 5.086 7.18282 5.36133 7.53749 5.772C7.89215 6.17333 8.06948 6.70067 8.06948 7.354C8.06948 8.20333 7.76615 8.85667 7.15948 9.314C6.56215 9.77133 5.68015 10 4.51348 10H0.173484V0.199999H4.24748C5.29282 0.199999 6.10948 0.414666 6.69749 0.843999C7.28548 1.27333 7.57948 1.894 7.57948 2.706C7.57948 3.25667 7.43948 3.72333 7.15948 4.106C6.87948 4.47933 6.48748 4.75933 5.98349 4.946ZM1.19548 4.638H4.19148C4.94748 4.638 5.52615 4.484 5.92748 4.176C6.33815 3.868 6.54348 3.42 6.54348 2.832C6.54348 2.244 6.33815 1.796 5.92748 1.488C5.52615 1.18 4.94748 1.026 4.19148 1.026H1.19548V4.638ZM4.51348 9.174C6.20282 9.174 7.04748 8.544 7.04748 7.284C7.04748 6.052 6.20282 5.436 4.51348 5.436H1.19548V9.174H4.51348ZM16.7599 6.724H15.0799V10H14.0859V2.636H15.0799V5.87H16.7739L19.3639 2.636H20.4419L17.5439 6.206L20.6519 10H19.4759L16.7599 6.724ZM24.9989 10.07C24.2895 10.07 23.6502 9.91133 23.0809 9.594C22.5115 9.26733 22.0635 8.81933 21.7369 8.25C21.4102 7.68067 21.2469 7.03667 21.2469 6.318C21.2469 5.59933 21.4102 4.95533 21.7369 4.386C22.0635 3.81667 22.5115 3.37333 23.0809 3.056C23.6502 2.73867 24.2895 2.58 24.9989 2.58C25.7082 2.58 26.3475 2.73867 26.9169 3.056C27.4862 3.37333 27.9295 3.81667 28.2469 4.386C28.5735 4.95533 28.7369 5.59933 28.7369 6.318C28.7369 7.03667 28.5735 7.68067 28.2469 8.25C27.9295 8.81933 27.4862 9.26733 26.9169 9.594C26.3475 9.91133 25.7082 10.07 24.9989 10.07ZM24.9989 9.188C25.5215 9.188 25.9882 9.07133 26.3989 8.838C26.8189 8.59533 27.1455 8.25467 27.3789 7.816C27.6122 7.37733 27.7289 6.878 27.7289 6.318C27.7289 5.758 27.6122 5.25867 27.3789 4.82C27.1455 4.38133 26.8189 4.04533 26.3989 3.812C25.9882 3.56933 25.5215 3.448 24.9989 3.448C24.4762 3.448 24.0049 3.56933 23.5849 3.812C23.1742 4.04533 22.8475 4.38133 22.6049 4.82C22.3715 5.25867 22.2549 5.758 22.2549 6.318C22.2549 6.878 22.3715 7.37733 22.6049 7.816C22.8475 8.25467 23.1742 8.59533 23.5849 8.838C24.0049 9.07133 24.4762 9.188 24.9989 9.188ZM34.6553 2.58C35.3459 2.58 35.9713 2.73867 36.5313 3.056C37.0913 3.364 37.5299 3.80267 37.8473 4.372C38.1646 4.94133 38.3233 5.59 38.3233 6.318C38.3233 7.05533 38.1646 7.70867 37.8473 8.278C37.5299 8.84733 37.0913 9.29067 36.5313 9.608C35.9806 9.916 35.3553 10.07 34.6553 10.07C34.0579 10.07 33.5166 9.94867 33.0313 9.706C32.5553 9.454 32.1633 9.09 31.8553 8.614V12.716H30.8613V2.636H31.8133V4.092C32.1119 3.60667 32.5039 3.23333 32.9893 2.972C33.4839 2.71067 34.0393 2.58 34.6553 2.58ZM34.5853 9.188C35.0986 9.188 35.5653 9.07133 35.9853 8.838C36.4053 8.59533 36.7319 8.25467 36.9653 7.816C37.2079 7.37733 37.3293 6.878 37.3293 6.318C37.3293 5.758 37.2079 5.26333 36.9653 4.834C36.7319 4.39533 36.4053 4.05467 35.9853 3.812C35.5653 3.56933 35.0986 3.448 34.5853 3.448C34.0626 3.448 33.5913 3.56933 33.1713 3.812C32.7606 4.05467 32.4339 4.39533 32.1913 4.834C31.9579 5.26333 31.8413 5.758 31.8413 6.318C31.8413 6.878 31.9579 7.37733 32.1913 7.816C32.4339 8.25467 32.7606 8.59533 33.1713 8.838C33.5913 9.07133 34.0626 9.188 34.5853 9.188ZM43.9882 6.164C44.5109 6.28533 44.9122 6.49533 45.1922 6.794C45.4816 7.09267 45.6262 7.45667 45.6262 7.886C45.6262 8.31533 45.4769 8.698 45.1782 9.034C44.8889 9.37 44.4922 9.63133 43.9882 9.818C43.4842 9.99533 42.9289 10.084 42.3222 10.084C41.7902 10.084 41.2676 10.0093 40.7542 9.86C40.2409 9.70133 39.7929 9.47267 39.4102 9.174L39.7462 8.432C40.0822 8.684 40.4742 8.88 40.9222 9.02C41.3702 9.16 41.8229 9.23 42.2802 9.23C42.9616 9.23 43.5169 9.104 43.9462 8.852C44.3849 8.59067 44.6042 8.24067 44.6042 7.802C44.6042 7.41 44.4269 7.10667 44.0722 6.892C43.7176 6.668 43.2322 6.556 42.6162 6.556H41.3562V5.828H42.5602C43.1109 5.828 43.5542 5.72533 43.8902 5.52C44.2262 5.30533 44.3942 5.02067 44.3942 4.666C44.3942 4.274 44.2029 3.966 43.8202 3.742C43.4469 3.518 42.9569 3.406 42.3502 3.406C41.5569 3.406 40.7729 3.60667 39.9982 4.008L39.7182 3.238C40.5956 2.78067 41.5056 2.552 42.4482 2.552C43.0082 2.552 43.5122 2.636 43.9602 2.804C44.4176 2.96267 44.7722 3.19133 45.0242 3.49C45.2856 3.78867 45.4162 4.134 45.4162 4.526C45.4162 4.89933 45.2856 5.23067 45.0242 5.52C44.7722 5.80933 44.4269 6.024 43.9882 6.164ZM47.8828 2.636H48.8768V8.488L53.7908 2.636H54.6728V10H53.6788V4.148L48.7788 10H47.8828V2.636ZM57.5214 2.636H58.5154V5.898H63.1494V2.636H64.1434V10H63.1494V6.752H58.5154V10H57.5214V2.636ZM73.2267 2.636L69.5447 10.882C69.246 11.5727 68.9007 12.0627 68.5087 12.352C68.1167 12.6413 67.6454 12.786 67.0947 12.786C66.74 12.786 66.4087 12.73 66.1007 12.618C65.7927 12.506 65.5267 12.338 65.3027 12.114L65.7647 11.372C66.138 11.7453 66.586 11.932 67.1087 11.932C67.4447 11.932 67.7294 11.8387 67.9627 11.652C68.2054 11.4653 68.4294 11.148 68.6347 10.7L68.9567 9.986L65.6667 2.636H66.7027L69.4747 8.894L72.2467 2.636H73.2267Z" fill="url(#paint0_linear_42_112)"/>
<defs>
<linearGradient id="paint0_linear_42_112" x1="-17.763" y1="-14.625" x2="41.6799" y2="43.6771" gradientUnits="userSpaceOnUse">
<stop stop-color="#976464"/>
<stop offset="1" stop-color="#CFA5A5"/>
</linearGradient>
</defs>
</svg>
