<svg width="23" height="21" viewBox="0 0 23 21" fill="none" xmlns="http://www.w3.org/2000/svg">
<path d="M11.8375 20.8163C11.6833 20.8158 11.5337 20.7641 11.4119 20.6694C7.53221 17.6493 4.8597 15.0485 2.98965 12.4828C0.60323 9.20393 0.05896 6.17676 1.37079 3.48516C2.30582 1.56259 4.99228 -0.0104213 8.1323 0.905421C9.62942 1.33869 10.9356 2.26785 11.8375 3.54109C12.7394 2.26785 14.0456 1.33869 15.5427 0.905421C18.6758 0.00356102 21.3692 1.56259 22.3043 3.48516C23.6161 6.17676 23.0718 9.20393 20.6854 12.4828C18.8153 15.0485 16.1428 17.6493 12.2632 20.6694C12.1414 20.7641 11.9917 20.8158 11.8375 20.8163ZM6.34598 2.04498C5.59883 2.01585 4.85787 2.19113 4.20263 2.55201C3.54739 2.9129 3.00262 3.44576 2.6268 4.09339C1.54524 6.31658 2.03368 8.79145 4.12005 11.6508C6.3373 14.5162 8.93364 17.0658 11.8375 19.2293C14.7409 17.0679 17.3373 14.5207 19.555 11.6578C21.6483 8.79145 22.1298 6.31658 21.0483 4.10038C20.3505 2.70215 18.2571 1.59055 15.9265 2.24772C15.1792 2.469 14.4865 2.84457 13.8928 3.35028C13.2991 3.85599 12.8177 4.48064 12.4795 5.18401C12.4269 5.31224 12.3375 5.42191 12.2226 5.49909C12.1076 5.57628 11.9724 5.61749 11.834 5.61749C11.6957 5.61749 11.5604 5.57628 11.4455 5.49909C11.3306 5.42191 11.2412 5.31224 11.1886 5.18401C10.8529 4.47888 10.3723 3.85278 9.77829 3.34675C9.18424 2.84072 8.49016 2.4662 7.74154 2.24772C7.28797 2.11573 6.81829 2.0475 6.34598 2.04498Z" fill="url(#paint0_linear_108_112)"/>
<defs>
<linearGradient id="paint0_linear_108_112" x1="-4.15232" y1="-11.9743" x2="28.4619" y2="-3.98589" gradientUnits="userSpaceOnUse">
<stop stop-color="#976464"/>
<stop offset="1" stop-color="#CFA5A5"/>
</linearGradient>
</defs>
</svg>
