<svg width="10" height="18" viewBox="0 0 10 18" fill="none" xmlns="http://www.w3.org/2000/svg">
<path d="M9.75057 1.49998C9.75114 1.79205 9.64942 2.07509 9.46307 2.29998L3.86307 8.99998L9.26307 15.7125C9.3669 15.8403 9.44444 15.9875 9.49123 16.1454C9.53802 16.3033 9.55314 16.4689 9.53572 16.6327C9.51829 16.7965 9.46867 16.9552 9.3897 17.0998C9.31074 17.2443 9.20398 17.3718 9.07557 17.475C8.94771 17.5788 8.80059 17.6564 8.64267 17.7031C8.48474 17.7499 8.31913 17.765 8.15534 17.7476C7.99156 17.7302 7.83283 17.6806 7.68828 17.6016C7.54374 17.5226 7.41622 17.4159 7.31307 17.2875L1.27557 9.78748C1.09172 9.56381 0.991211 9.28326 0.991211 8.99373C0.991211 8.7042 1.09172 8.42365 1.27557 8.19998L7.52557 0.699982C7.63051 0.573408 7.75938 0.468779 7.90482 0.39209C8.05025 0.315399 8.20939 0.268152 8.37311 0.253057C8.53683 0.237963 8.70192 0.255318 8.85892 0.304123C9.01593 0.352928 9.16176 0.432226 9.28807 0.537479C9.43146 0.653797 9.54731 0.800436 9.62727 0.966858C9.70724 1.13328 9.74935 1.31535 9.75057 1.49998Z" fill="url(#paint0_linear_204_64)"/>
<defs>
<linearGradient id="paint0_linear_204_64" x1="-4.48339" y1="21.5399" x2="5.54779" y2="-1.13094" gradientUnits="userSpaceOnUse">
<stop stop-color="#976464"/>
<stop offset="1" stop-color="#CFA5A5"/>
</linearGradient>
</defs>
</svg>
