<svg width="10" height="18" viewBox="0 0 10 18" fill="none" xmlns="http://www.w3.org/2000/svg">
<path d="M0.24943 16.5C0.248858 16.208 0.350577 15.9249 0.536929 15.7L6.13693 9.00002L0.73693 2.28752C0.633098 2.15966 0.555557 2.01254 0.508768 1.85462C0.461978 1.69669 0.446861 1.53108 0.464285 1.36729C0.481709 1.20351 0.53133 1.04478 0.610297 0.900233C0.689264 0.755687 0.796021 0.628173 0.924429 0.525019C1.05229 0.421187 1.19941 0.343648 1.35733 0.296858C1.51526 0.250069 1.68087 0.234951 1.84466 0.252375C2.00844 0.269799 2.16717 0.319421 2.31172 0.398388C2.45626 0.477355 2.58378 0.584111 2.68693 0.71252L8.72443 8.21252C8.90828 8.43619 9.00879 8.71674 9.00879 9.00627C9.00879 9.2958 8.90828 9.57635 8.72443 9.80002L2.47443 17.3C2.36949 17.4266 2.24062 17.5312 2.09518 17.6079C1.94975 17.6846 1.79061 17.7318 1.62689 17.7469C1.46317 17.762 1.29808 17.7447 1.14108 17.6959C0.984074 17.6471 0.83824 17.5678 0.711929 17.4625C0.568538 17.3462 0.452695 17.1996 0.372726 17.0331C0.292758 16.8667 0.25065 16.6847 0.24943 16.5Z" fill="url(#paint0_linear_204_66)"/>
<defs>
<linearGradient id="paint0_linear_204_66" x1="14.4834" y1="-3.53991" x2="4.45221" y2="19.1309" gradientUnits="userSpaceOnUse">
<stop stop-color="#976464"/>
<stop offset="1" stop-color="#CFA5A5"/>
</linearGradient>
</defs>
</svg>
