<svg width="70" height="69" viewBox="0 0 70 69" fill="none" xmlns="http://www.w3.org/2000/svg">
<path d="M64.8999 9.19999C62.3594 9.19999 60.2999 11.2595 60.2999 13.8C60.305 14.5699 60.506 15.3258 60.8841 15.9965L58.614 18.1286C56.6479 15.3029 54.1947 12.8497 51.369 10.8836L53.5034 8.61579C54.1741 8.99388 54.93 9.19494 55.6999 9.19999C57.8173 9.21463 59.675 7.79167 60.2124 5.74359C60.7499 3.69551 59.8301 1.54373 57.9784 0.516872C56.1266 -0.509989 53.8143 -0.150507 52.3617 1.39006C50.9091 2.93063 50.686 5.26008 51.8198 7.04834L49.3956 9.63009C37.8418 2.92806 23.1931 5.07249 14.0452 14.8051C4.89723 24.5376 3.66322 39.2909 11.0672 50.4079L0.811548 61.3122C0.376486 61.7752 0.39914 62.5033 0.862148 62.9383C1.32516 63.3734 2.05319 63.3507 2.48825 62.8877L12.4461 52.2985C13.8418 54.0623 15.4376 55.658 17.2013 57.0538L6.61215 67.0116C6.14914 67.4467 6.12649 68.1747 6.56155 68.6377C6.99661 69.1008 7.72464 69.1234 8.18765 68.6883L19.0919 58.4326C31.1142 66.4478 47.2216 64.2688 56.682 53.3473L61.512 53.7625C62.8179 53.876 63.8027 54.9979 63.746 56.3075C63.6893 57.6171 62.6112 58.6497 61.3004 58.65C58.8435 58.6525 56.8524 60.6436 56.8499 63.1005V67.85C56.8499 68.4851 57.3648 69 57.9999 69C58.635 69 59.1499 68.4851 59.1499 67.85V63.1005C59.1512 61.9129 60.1139 60.9506 61.3016 60.95C63.8407 60.9444 65.9262 58.9422 66.0351 56.4054C66.1441 53.8686 64.238 51.6949 61.7087 51.4717L58.3898 51.1865C64.9569 42.0198 65.5363 29.8535 59.8698 20.1043L62.4515 17.6801C64.1057 18.7334 66.2457 18.6222 67.7817 17.4032C69.3178 16.1842 69.9122 14.1254 69.2622 12.2753C68.6123 10.4251 66.8609 9.19046 64.8999 9.19999ZM55.6999 2.29999C56.7334 2.2953 57.6431 2.98057 57.9239 3.97525C58.2046 4.96992 57.7874 6.02969 56.9039 6.56603C56.0204 7.10237 54.8877 6.98354 54.1348 6.27554V6.26864L54.121 6.26059C53.4445 5.61234 53.2288 4.61854 53.5758 3.74822C53.9228 2.87789 54.763 2.30503 55.6999 2.29999ZM11.1017 45.824C29.8146 44.1821 45.0621 30.1184 48.2077 11.5989C49.5624 12.382 50.8451 13.2837 52.0406 14.2933C49.9182 34.1865 33.2004 49.3166 13.1947 49.45C12.4025 48.2984 11.7027 47.086 11.1017 45.824ZM8.5499 34.5C8.5508 32.4209 8.79746 30.3491 9.28475 28.3279C10.0634 31.1242 11.133 33.8311 12.476 36.4044C11.2326 36.764 9.97169 37.0603 8.69825 37.2922C8.6 36.3647 8.55048 35.4327 8.5499 34.5ZM14.6989 35.6833C12.7602 32.0626 11.402 28.1599 10.6739 24.1178C11.5843 21.9994 12.7678 20.0092 14.1941 18.1976C15.1252 23.5743 17.0888 28.7198 19.9763 33.35C18.2774 34.2574 16.5134 35.0373 14.6989 35.6833ZM41.7734 8.93319C43.2417 9.32293 44.6731 9.8401 46.0514 10.4788C43.3325 28.566 28.4074 42.3329 10.1599 43.585C9.68183 42.2751 9.30882 40.9291 9.0444 39.56C24.9959 36.6126 37.7751 24.6542 41.7734 8.93319ZM28.4564 27.2653C25.2597 22.4659 23.1447 17.0289 22.2579 11.3309C23.4854 10.6552 24.7648 10.0784 26.084 9.60594C27.5006 14.3095 29.6898 18.7446 32.5619 22.7297C31.3131 24.3458 29.9405 25.8622 28.4564 27.2653ZM39.5252 8.44559C38.4205 12.8506 36.5489 17.0268 33.996 20.7828C31.4787 17.1525 29.5495 13.1481 28.2793 8.91709C31.9501 7.95076 35.7864 7.78992 39.5252 8.44559ZM20.143 12.6293C21.1819 18.4185 23.4223 23.9257 26.7199 28.796C25.2263 30.0481 23.6423 31.1881 21.9808 32.2069C18.8869 27.2662 16.9136 21.7073 16.1997 15.9217C17.4052 14.7 18.7258 13.5974 20.143 12.6293ZM14.937 51.7063C34.7779 50.7358 51.1768 35.8982 54.121 16.2529C55.481 17.675 56.679 19.2436 57.6929 20.93C55.2831 40.5168 38.6343 55.2244 18.8999 55.2C18.7849 55.2 18.6699 55.2 18.5549 55.2C17.2414 54.1522 16.03 52.9824 14.937 51.7063ZM41.5158 50.7863C45.4107 52.2051 49.4958 53.0339 53.6357 53.245C52.2529 54.6179 50.7234 55.8346 49.0747 56.8732C44.3628 56.7788 39.7055 55.8442 35.3219 54.1132C37.4771 53.1823 39.5492 52.0697 41.5158 50.7874V50.7863ZM55.6436 51.0071C51.6402 50.99 47.6627 50.3653 43.8469 49.1544C45.4341 47.9571 46.933 46.6469 48.3318 45.2341C51.4971 46.2147 54.7213 46.994 57.985 47.5674C57.2958 48.7739 56.5129 49.9244 55.6436 51.0082V51.0071ZM50.0718 43.3676C51.3394 41.9208 52.5048 40.3876 53.5598 38.7791C55.8767 39.6396 58.2617 40.3043 60.6898 40.7663C60.3003 42.3648 59.7612 43.923 59.0798 45.4204C56.0417 44.9027 53.0344 44.2178 50.0718 43.3688V43.3676ZM21.7749 57.3907C25.3423 57.1501 28.8635 56.4478 32.2502 55.3012C36.3311 57.193 40.6904 58.4143 45.1601 58.9179C37.5544 62.0895 28.9035 61.5245 21.7749 57.3907ZM61.1463 38.5135C58.9842 38.1038 56.8578 37.5243 54.7868 36.7804C56.9981 32.9428 58.574 28.7727 59.4535 24.4317C61.2884 28.8842 61.8736 33.753 61.1463 38.5135ZM64.8999 16.1C64.2715 16.0992 63.6711 15.8401 63.2393 15.3835L63.2313 15.3697H63.2244C62.4838 14.5746 62.403 13.3689 63.0307 12.4821C63.6585 11.5952 64.8225 11.2706 65.8186 11.7048C66.8146 12.1389 67.3693 13.2125 67.147 14.276C66.9247 15.3396 65.9865 16.1012 64.8999 16.1Z" fill="#424242"/>
</svg>
