<svg width="81" height="62" viewBox="0 0 81 62" fill="none" xmlns="http://www.w3.org/2000/svg">
<path d="M80.4972 31.3918L68.8254 13.2356C68.7079 13.053 68.5464 12.9029 68.3558 12.7989C68.1652 12.695 67.9515 12.6405 67.7344 12.6406H52.1719V5.50781C52.1705 4.30439 51.6919 3.15063 50.8409 2.29968C49.99 1.44873 48.8362 0.97008 47.6328 0.96875H4.83594C3.63251 0.97008 2.47876 1.44873 1.6278 2.29968C0.776854 3.15063 0.298205 4.30439 0.296875 5.50781V52.8438C0.296875 53.1877 0.43351 53.5176 0.676721 53.7608C0.919932 54.004 1.2498 54.1406 1.59375 54.1406H6.87527C7.18702 56.3011 8.26683 58.2768 9.91685 59.7058C11.5669 61.1348 13.6766 61.9214 15.8594 61.9214C18.0422 61.9214 20.1519 61.1348 21.8019 59.7058C23.4519 58.2768 24.5317 56.3011 24.8435 54.1406H56.1565C56.4683 56.3011 57.5481 58.2768 59.1981 59.7058C60.8481 61.1348 62.9578 61.9214 65.1406 61.9214C67.3234 61.9214 69.4331 61.1348 71.0832 59.7058C72.7332 58.2768 73.813 56.3011 74.1247 54.1406H79.4062C79.7502 54.1406 80.0801 54.004 80.3233 53.7608C80.5665 53.5176 80.7031 53.1877 80.7031 52.8438V32.0938C80.7031 31.8449 80.6317 31.6013 80.4972 31.3918ZM15.8594 59.3281C14.5769 59.3281 13.3232 58.9478 12.2568 58.2353C11.1905 57.5228 10.3594 56.5101 9.86859 55.3252C9.37781 54.1404 9.24939 52.8366 9.49959 51.5787C9.7498 50.3209 10.3674 49.1655 11.2742 48.2586C12.1811 47.3517 13.3365 46.7342 14.5943 46.484C15.8522 46.2338 17.156 46.3622 18.3408 46.853C19.5257 47.3438 20.5384 48.1749 21.2509 49.2412C21.9634 50.3076 22.3438 51.5613 22.3438 52.8438C22.342 54.563 21.6583 56.2113 20.4426 57.427C19.2269 58.6427 17.5786 59.3264 15.8594 59.3281ZM49.5781 51.5469H24.8435C24.5317 49.3864 23.4519 47.4107 21.8019 45.9817C20.1519 44.5527 18.0422 43.7661 15.8594 43.7661C13.6766 43.7661 11.5669 44.5527 9.91685 45.9817C8.26683 47.4107 7.18702 49.3864 6.87527 51.5469H2.89062V38.5781H49.5781V51.5469ZM49.5781 35.9844H2.89062V5.50781C2.89105 4.99202 3.09614 4.49747 3.46087 4.13274C3.82559 3.76802 4.32014 3.56293 4.83594 3.5625H47.6328C48.1486 3.56293 48.6432 3.76802 49.0079 4.13274C49.3726 4.49747 49.5777 4.99202 49.5781 5.50781V35.9844ZM69.5273 19.125L77.0313 30.7969H58.6562V19.125H69.5273ZM65.1406 59.3281C63.8581 59.3281 62.6045 58.9478 61.5381 58.2353C60.4717 57.5228 59.6406 56.5101 59.1498 55.3252C58.6591 54.1404 58.5306 52.8366 58.7808 51.5787C59.031 50.3209 59.6486 49.1655 60.5555 48.2586C61.4623 47.3517 62.6177 46.7342 63.8756 46.484C65.1334 46.2338 66.4372 46.3622 67.6221 46.853C68.807 47.3438 69.8197 48.1749 70.5322 49.2412C71.2447 50.3076 71.625 51.5613 71.625 52.8438C71.6233 54.563 70.9396 56.2113 69.7239 57.427C68.5082 58.6427 66.8599 59.3264 65.1406 59.3281ZM78.1094 41.1719H75.5156C75.1717 41.1719 74.8418 41.0352 74.5986 40.792C74.3554 40.5488 74.2188 40.219 74.2188 39.875C74.2188 39.531 74.3554 39.2012 74.5986 38.958C74.8418 38.7148 75.1717 38.5781 75.5156 38.5781H78.1094V41.1719ZM78.1094 35.9844H75.5156C74.4838 35.9844 73.4942 36.3943 72.7645 37.1239C72.0349 37.8535 71.625 38.8431 71.625 39.875C71.625 40.9069 72.0349 41.8965 72.7645 42.6261C73.4942 43.3557 74.4838 43.7656 75.5156 43.7656H78.1094V51.5469H74.1247C73.813 49.3864 72.7332 47.4107 71.0832 45.9817C69.4331 44.5527 67.3234 43.7661 65.1406 43.7661C62.9578 43.7661 60.8481 44.5527 59.1981 45.9817C57.5481 47.4107 56.4683 49.3864 56.1565 51.5469H52.1719V15.2344H67.026L67.8608 16.5312H57.3594C57.0154 16.5312 56.6856 16.6679 56.4423 16.9111C56.1991 17.1543 56.0625 17.4842 56.0625 17.8281V32.0938C56.0625 32.4377 56.1991 32.7676 56.4423 33.0108C56.6856 33.254 57.0154 33.3906 57.3594 33.3906H78.1094V35.9844Z" fill="#424242"/>
</svg>
